<svg xmlns="http://www.w3.org/2000/svg" xmlns:xlink="http://www.w3.org/1999/xlink" version="1.1" width="1000" height="1000" viewBox="0 0 1000 1000" xml:space="preserve">
<desc>Created with Fabric.js 3.5.0</desc>
<defs>
</defs>
<rect x="0" y="0" width="100%" height="100%" fill="rgba(255,255,255,0)"/>
<g transform="matrix(51.0901 0 0 51.0901 498.6285 498.6285)" id="793986">
<path style="stroke: none; stroke-width: 1; stroke-dasharray: none; stroke-linecap: butt; stroke-dashoffset: 0; stroke-linejoin: miter; stroke-miterlimit: 4; is-custom-font: none; font-file-url: none; fill: rgb(7,7,7); fill-rule: nonzero; opacity: 1;" vector-effect="non-scaling-stroke" transform=" translate(-12, -12)" d="M 18 7.25 h -0.25 V 6 A 3.754 3.754 0 0 0 14 2.25 H 6 A 3.754 3.754 0 0 0 2.25 6 V 16 a 0.75 0.75 0 0 0 0.466 0.694 A 0.741 0.741 0 0 0 3 16.75 a 0.749 0.749 0 0 0 0.536 -0.225 L 5.275 14.75 H 6.25 V 16 A 3.754 3.754 0 0 0 10 19.75 h 8.725 l 1.739 1.775 A 0.749 0.749 0 0 0 21 21.75 a 0.741 0.741 0 0 0 0.284 -0.056 A 0.75 0.75 0 0 0 21.75 21 V 11 A 3.754 3.754 0 0 0 18 7.25 Z m -13.04 6 a 0.75 0.75 0 0 0 -0.536 0.225 l -0.674 0.688 V 6 A 2.252 2.252 0 0 1 6 3.75 h 8 A 2.252 2.252 0 0 1 16.25 6 v 5 A 2.252 2.252 0 0 1 14 13.25 Z m 15.29 5.913 l -0.674 -0.688 a 0.75 0.75 0 0 0 -0.536 -0.225 H 10 A 2.252 2.252 0 0 1 7.75 16 V 14.75 H 14 A 3.754 3.754 0 0 0 17.75 11 V 8.75 H 18 A 2.252 2.252 0 0 1 20.25 11 Z" stroke-linecap="round"/>
</g>  
</svg>