<svg xmlns="http://www.w3.org/2000/svg" xmlns:xlink="http://www.w3.org/1999/xlink" version="1.1" width="1000" height="1000" viewBox="0 0 1000 1000" xml:space="preserve">
<desc>Created with Fabric.js 3.5.0</desc>
<defs>
</defs>
<rect x="0" y="0" width="100%" height="100%" fill="rgba(255,255,255,0)"/>
<g transform="matrix(-28.0825 0 0 -28.0825 499.9995 499.9995)" id="922731">
<g style="" vector-effect="non-scaling-stroke">
		<g transform="matrix(1 0 0 1 -10 7)" id="Stock_cut">
<rect style="stroke: rgb(0,0,0); stroke-width: 2; stroke-dasharray: none; stroke-linecap: butt; stroke-dashoffset: 0; stroke-linejoin: round; stroke-miterlimit: 10; is-custom-font: none; font-file-url: none; fill: none; fill-rule: nonzero; opacity: 1;" x="-3" y="-8" rx="0" ry="0" width="6" height="16"/>
</g>
		<g transform="matrix(1 0 0 1 3 1)" id="Stock_cut">
<path style="stroke: rgb(0,0,0); stroke-width: 2; stroke-dasharray: none; stroke-linecap: butt; stroke-dashoffset: 0; stroke-linejoin: round; stroke-miterlimit: 10; is-custom-font: none; font-file-url: none; fill: none; fill-rule: nonzero; opacity: 1;" transform=" translate(-19, -17)" d="M 9 15 l 5 -5 l 2 -7 h 0 c 2.209 0 4 1.791 4 4 v 8 h 5 h 0 c 2.209 0 4 1.791 4 4 v 0 l -1.721 10.329 C 27.118 30.293 26.283 31 25.306 31 H 9 V 15 z" stroke-linecap="round"/>
</g>
</g>
</g>
</svg>