<svg xmlns="http://www.w3.org/2000/svg" xmlns:xlink="http://www.w3.org/1999/xlink" version="1.1" width="1000" height="1000" viewBox="0 0 1000 1000" xml:space="preserve">
<desc>Created with Fabric.js 3.5.0</desc>
<defs>
</defs>
<rect x="0" y="0" width="100%" height="100%" fill="rgba(31,31,31,0)"/>
<g transform="matrix(18.3042 0 0 18.3042 500.0005 500.0005)" id="775375">
<g style="" vector-effect="non-scaling-stroke">
		<g transform="matrix(1 0 0 1 0 13)" id="Expanded">
<path style="stroke: none; stroke-width: 1; stroke-dasharray: none; stroke-linecap: butt; stroke-dashoffset: 0; stroke-linejoin: miter; stroke-miterlimit: 4; is-custom-font: none; font-file-url: none; fill: rgb(224,224,224); fill-rule: nonzero; opacity: 1;" transform=" translate(-24, -37)" d="M 42 48 H 28 V 35 h -8 v 13 H 6 V 27 c 0 -0.552 0.447 -1 1 -1 s 1 0.448 1 1 v 19 h 10 V 33 h 12 v 13 h 10 V 28 c 0 -0.552 0.447 -1 1 -1 s 1 0.448 1 1 V 48 z" stroke-linecap="round"/>
</g>
		<g transform="matrix(1 0 0 1 -0.0005 -9.1919)" id="Expanded">
<path style="stroke: none; stroke-width: 1; stroke-dasharray: none; stroke-linecap: butt; stroke-dashoffset: 0; stroke-linejoin: miter; stroke-miterlimit: 4; is-custom-font: none; font-file-url: none; fill: rgb(224,224,224); fill-rule: nonzero; opacity: 1;" transform=" translate(-23.9995, -14.8081)" d="M 47 27 c -0.249 0 -0.497 -0.092 -0.691 -0.277 L 24 5.384 L 1.691 26.723 c -0.399 0.381 -1.032 0.368 -1.414 -0.031 c -0.382 -0.399 -0.367 -1.032 0.031 -1.414 L 24 2.616 l 23.691 22.661 c 0.398 0.382 0.413 1.015 0.031 1.414 C 47.526 26.896 47.264 27 47 27 z" stroke-linecap="round"/>
</g>
		<g transform="matrix(1 0 0 1 11.5 -13.5)" id="Expanded">
<path style="stroke: none; stroke-width: 1; stroke-dasharray: none; stroke-linecap: butt; stroke-dashoffset: 0; stroke-linejoin: miter; stroke-miterlimit: 4; is-custom-font: none; font-file-url: none; fill: rgb(224,224,224); fill-rule: nonzero; opacity: 1;" transform=" translate(-35.5, -10.5)" d="M 39 15 c -0.553 0 -1 -0.448 -1 -1 V 8 h -6 c -0.553 0 -1 -0.448 -1 -1 s 0.447 -1 1 -1 h 8 v 8 C 40 14.552 39.553 15 39 15 z" stroke-linecap="round"/>
</g>
</g>
</g>
</svg>