<svg xmlns="http://www.w3.org/2000/svg" xmlns:xlink="http://www.w3.org/1999/xlink" version="1.1" width="1000" height="1000" viewBox="0 0 1000 1000" xml:space="preserve">
<desc>Created with Fabric.js 3.5.0</desc>
<defs>
</defs>
<rect x="0" y="0" width="100%" height="100%" fill="rgba(31,31,31,0)"/>
<g transform="matrix(44.0428 0 0 40.0354 500.0001 499.9995)" id="52226">
<path style="stroke: none; stroke-width: 1; stroke-dasharray: none; stroke-linecap: butt; stroke-dashoffset: 0; stroke-linejoin: miter; stroke-miterlimit: 4; is-custom-font: none; font-file-url: none; fill: rgb(224,224,224); fill-rule: nonzero; opacity: 1;" vector-effect="non-scaling-stroke" transform=" translate(-12, -12.06)" d="M 8.46777 8.39453 l -0.00225 0.00183 l -0.00214 0.00208 Z M 18.42188 8.208 a 1.237 1.237 0 0 0 -0.23 -0.17481 a 0.99959 0.99959 0 0 0 -1.39941 0.41114 a 5.78155 5.78155 0 0 1 -1.398 1.77734 a 8.6636 8.6636 0 0 0 0.1333 -1.50977 a 8.71407 8.71407 0 0 0 -4.40039 -7.582 a 1.00009 1.00009 0 0 0 -1.49121 0.80567 A 7.017 7.017 0 0 1 7.165 6.87793 l -0.23047 0.1875 a 8.51269 8.51269 0 0 0 -1.9873 1.8623 A 8.98348 8.98348 0 0 0 8.60254 22.83594 A 0.99942 0.99942 0 0 0 9.98 21.91016 a 1.04987 1.04987 0 0 0 -0.0498 -0.3125 a 6.977 6.977 0 0 1 -0.18995 -2.58106 a 9.004 9.004 0 0 0 4.3125 4.0166 a 0.997 0.997 0 0 0 0.71534 0.03809 A 8.99474 8.99474 0 0 0 18.42188 8.208 Z M 14.51709 21.03906 a 6.964 6.964 0 0 1 -3.57666 -4.40234 a 8.90781 8.90781 0 0 1 -0.17969 -0.96387 a 1.00025 1.00025 0 0 0 -0.79931 -0.84473 A 0.982 0.982 0 0 0 9.77 14.80957 a 0.99955 0.99955 0 0 0 -0.8667 0.501 a 8.9586 8.9586 0 0 0 -1.20557 4.71777 a 6.98547 6.98547 0 0 1 -1.17529 -9.86816 a 6.55463 6.55463 0 0 1 1.562 -1.458 a 0.74507 0.74507 0 0 0 0.07422 -0.05469 s 0.29669 -0.24548 0.30683 -0.2511 a 8.96766 8.96766 0 0 0 2.89874 -4.63269 a 6.73625 6.73625 0 0 1 1.38623 8.08789 a 1.00024 1.00024 0 0 0 1.18359 1.418 a 7.85568 7.85568 0 0 0 3.86231 -2.6875 a 7.00072 7.00072 0 0 1 -3.2793 10.457 Z" stroke-linecap="round"/>
</g>
</svg>